<svg width="14" height="14" viewBox="0 0 22 18" fill="none" xmlns="http://www.w3.org/2000/svg">
<path d="M15.9153 14.5213C14.5008 15.5799 12.7784 16.1665 11 16.195C5.2076 16.195 1.89764 9.69502 1.89764 9.69502C2.92695 7.81156 4.35457 6.16602 6.08473 4.86878M9.26229 3.39003C9.83187 3.25912 10.415 3.19368 11 3.19503C16.7924 3.19503 20.1024 9.69502 20.1024 9.69502C19.6001 10.6177 19.001 11.4864 18.315 12.2869M12.7543 11.4175C12.527 11.657 12.253 11.8491 11.9484 11.9823C11.6439 12.1155 11.3152 12.1872 10.9819 12.1929C10.6486 12.1987 10.3175 12.1385 10.0084 12.0159C9.69925 11.8933 9.41845 11.7109 9.18272 11.4794C8.94699 11.2479 8.76116 10.9722 8.6363 10.6687C8.51145 10.3652 8.45013 10.0401 8.45601 9.71282C8.46189 9.38554 8.53485 9.06277 8.67053 8.76377C8.80621 8.46477 9.00184 8.19567 9.24574 7.97252" stroke="#363636" stroke-width="2" stroke-linecap="round" stroke-linejoin="round"/>
<path d="M2.9303 1.5L18.7839 16.5" stroke="#363636" stroke-width="2" stroke-linecap="round" stroke-linejoin="round"/>
</svg>