<svg width="14" height="14" viewBox="0 0 20 14" fill="none" xmlns="http://www.w3.org/2000/svg">
<path d="M19.87 6.49999C19.23 5.38999 15.71 -0.180006 9.73001 -6.38235e-06C4.20001 0.139994 1.00001 4.99999 0.130007 6.49999C0.0422391 6.65201 -0.00396729 6.82446 -0.00396729 6.99999C-0.00396729 7.17553 0.0422391 7.34797 0.130007 7.49999C0.760007 8.58999 4.13001 14 10.02 14H10.27C15.8 13.86 19.01 8.99999 19.87 7.49999C19.9578 7.34797 20.004 7.17553 20.004 6.99999C20.004 6.82446 19.9578 6.65201 19.87 6.49999ZM10.22 12C5.91001 12.1 3.10001 8.40999 2.22001 6.99999C3.22001 5.38999 5.83001 2.09999 9.83001 1.99999C14.12 1.88999 16.94 5.58999 17.83 6.99999C16.8 8.60999 14.22 11.9 10.22 12Z" fill="#363636"/>
<path d="M10 3.5C9.30777 3.5 8.63108 3.70527 8.05551 4.08986C7.47993 4.47444 7.03133 5.02107 6.76642 5.66061C6.50152 6.30015 6.4322 7.00388 6.56725 7.68282C6.7023 8.36175 7.03564 8.98539 7.52513 9.47487C8.01461 9.96436 8.63825 10.2977 9.31719 10.4327C9.99612 10.5678 10.6999 10.4985 11.3394 10.2336C11.9789 9.96867 12.5256 9.52007 12.9101 8.9445C13.2947 8.36892 13.5 7.69223 13.5 7C13.5 6.07174 13.1313 5.1815 12.4749 4.52513C11.8185 3.86875 10.9283 3.5 10 3.5ZM10 8.5C9.70333 8.5 9.41332 8.41203 9.16665 8.2472C8.91997 8.08238 8.72771 7.84811 8.61418 7.57403C8.50065 7.29994 8.47095 6.99834 8.52882 6.70736C8.5867 6.41639 8.72956 6.14912 8.93934 5.93934C9.14912 5.72956 9.41639 5.5867 9.70737 5.52882C9.99834 5.47094 10.2999 5.50065 10.574 5.61418C10.8481 5.72771 11.0824 5.91997 11.2472 6.16665C11.412 6.41332 11.5 6.70333 11.5 7C11.5 7.39782 11.342 7.77936 11.0607 8.06066C10.7794 8.34196 10.3978 8.5 10 8.5Z" fill="#363636"/>
</svg>



